# xmcd CD database file
#
# Track frame offsets:
#	150
#	8997
#	11765
#	16800
#	20510
#	22937
#	29185
#	39432
#	46400
#	53517
#	65477
#	81232
#	91372
#	95335
#	106947
#	120140
#	126472
#
# Disc length: 1879 seconds
#
# Revision: 0
# Processed by: cddbd v1.5PL3 Copyright (c) Steve Scherf et al.
# Submitted via: CDex 1.51
#
DISCID=cd075511
DTITLE=count bass d - begborrowsteel
DYEAR=2004
DGENRE=Jazz
TTITLE0=bullets hit brains
TTITLE1=doxology
TTITLE2=the mingus sextet
TTITLE3=nina and weldon
TTITLE4=gimmie a gig
TTITLE5=drug abusage
TTITLE6=kumbuka watu penda pesa(part.1)
TTITLE7=kumbuka watu penda pesa(part.2)
TTITLE8=des fausses impressions
TTITLE9=dollar bill
TTITLE10=down easy
TTITLE11=new edition karaoke
TTITLE12=low batteries
TTITLE13=like a pimp(bonus track for japan)
TTITLE14=dwight will do anything(part.1)
TTITLE15=full blooded west indian(part.1)
TTITLE16=full blooded west indian(part.2)
EXTD=YEAR: 2004
EXTT0=
EXTT1=
EXTT2=
EXTT3=
EXTT4=
EXTT5=
EXTT6=
EXTT7=
EXTT8=
EXTT9=
EXTT10=
EXTT11=
EXTT12=
EXTT13=
EXTT14=
EXTT15=
EXTT16=
PLAYORDER=
